<svg id="Layer_1" data-name="Layer 1" xmlns="http://www.w3.org/2000/svg" viewBox="0 0 20 25.94"><defs><style>.cls-1{fill:#dc8b47;}.cls-2{fill:#fff;}</style></defs><title>mapicon</title><path class="cls-1" d="M10.5,26.7C9,25.15,7.1,23.42,5.65,21.81A19.85,19.85,0,0,1,.81,13.33,10,10,0,0,1,13.32,1.17C19,2.77,21.9,8.72,19.84,14.56c-1.52,4.31-4.5,7.58-7.77,10.63Z" transform="translate(-0.5 -0.76)"/><path class="cls-2" d="M5,10c.3-.27.74-.79,1-1s.49-.32.74-.05.12.49-.09.7L5,11.26a.55.55,0,0,1-.85,0L2.45,9.52c-.22-.23-.33-.5-.07-.74s.53-.11.74.11.71.74,1,1c0-.28,0-.51,0-.66a6.57,6.57,0,1,1,6.79,7.41c-.37,0-.74,0-.76-.47s.37-.45.7-.48A5.61,5.61,0,0,0,13.22,5.1a5.59,5.59,0,0,0-6.54,1A5.68,5.68,0,0,0,5.13,9,5.18,5.18,0,0,0,5,10Z" transform="translate(-0.5 -0.76)"/><path class="cls-2" d="M11.49,3.57a4.37,4.37,0,0,0-.65-.06l-.05.92a6.07,6.07,0,0,1,.92.13,5.53,5.53,0,0,1,2.9,1.55,5.63,5.63,0,0,1-4.87,9.54A5.49,5.49,0,0,1,5.41,12l-.17.17h0a.36.36,0,0,1-.19.13.52.52,0,0,1-.63-.14,6.64,6.64,0,0,0,5.83,4.48A6.57,6.57,0,0,0,11.49,3.57Z" transform="translate(-0.5 -0.76)"/><path class="cls-2" d="M13.35,10.6l-2.58,0a.42.42,0,0,1-.42-.43l0-3.75a.43.43,0,0,1,.86,0l0,3.31,2.14,0a.43.43,0,0,1,0,.86Z" transform="translate(-0.5 -0.76)"/></svg>